<svg width="587" height="578" viewBox="0 0 587 578" fill="none" xmlns="http://www.w3.org/2000/svg">
<path d="M585.52 363.367C586.844 350.582 588.169 328.142 585.255 301.528C579.426 246.211 556.908 200.027 523.528 164.542C487.763 126.446 440.607 97.7445 382.854 85.7419C381.264 81.8281 378.88 77.9142 375.701 75.044C364.309 64.607 346.559 65.1288 335.698 76.3486C325.101 87.5684 325.631 105.05 337.022 115.748C348.414 126.446 366.164 125.664 377.026 114.444C379.145 112.095 380.734 109.747 382.059 107.138C434.514 118.88 475.577 144.189 508.162 179.153C546.046 219.858 560.617 268.39 564.326 303.615C566.975 328.925 565.65 350.06 564.591 362.062C564.061 367.542 567.77 372.76 573.333 373.804C579.161 374.065 584.725 369.629 585.52 363.367ZM342.851 109.225C334.903 101.919 334.373 89.6558 342.056 81.8281C349.474 74.0003 361.925 73.4784 369.873 81.0453C377.82 88.3512 378.35 100.615 370.667 108.442C362.985 116.27 350.798 116.531 342.851 109.225Z" fill="#70A9CA"/>
<path d="M446.441 544.966C456.508 536.878 473.463 522.005 490.683 501.131C526.448 458.078 543.403 409.546 545.522 361.275C547.641 309.35 534.66 256.121 502.605 207.589C504.459 203.675 505.519 199.501 505.254 194.804C504.724 179.409 491.743 167.407 476.112 167.929C460.482 168.45 448.295 181.236 448.825 196.63C449.355 212.025 462.336 224.028 477.967 223.506C481.146 223.506 484.06 222.723 486.709 221.94C515.321 266.559 526.183 313.264 524.063 360.492C521.679 415.808 497.041 460.166 474.523 487.563C458.362 507.393 442.202 521.483 432.665 529.05C428.161 532.703 427.367 538.704 430.281 543.401C434.519 548.098 441.672 548.88 446.441 544.966ZM457.303 196.109C457.038 185.411 465.515 176.278 476.377 176.017C487.239 175.756 496.511 184.106 496.776 194.804C497.041 205.502 488.564 214.634 477.702 214.895C466.84 215.156 457.833 206.806 457.303 196.109Z" fill="#77C5B8"/>
<path d="M217.799 576.541C230.78 577.846 253.564 579.151 280.586 576.281C336.749 570.54 383.64 548.361 419.67 515.485C458.349 480.26 487.49 433.815 499.677 376.933C503.65 375.368 507.624 373.019 510.538 369.888C521.135 358.668 520.605 341.186 509.214 330.488C497.822 320.051 480.072 320.573 469.21 331.793C458.349 343.013 459.143 360.495 470.535 371.193C472.919 373.28 475.304 374.846 477.953 376.15C466.031 427.814 440.334 468.257 404.834 500.351C363.506 537.663 314.231 552.014 278.466 555.667C252.769 558.277 231.31 556.972 219.124 555.928C213.56 555.406 208.262 559.059 207.202 564.539C207.202 570.279 211.706 575.759 217.799 576.541ZM476.098 337.533C483.516 329.706 495.968 329.184 503.915 336.751C511.863 344.056 512.393 356.32 504.71 364.148C497.292 371.976 484.841 372.497 476.893 364.931C468.946 357.625 468.416 345.361 476.098 337.533Z" fill="#197663"/>
<path d="M33.6762 439.555C41.8888 449.47 56.9894 466.17 78.1832 483.13C121.895 518.355 171.171 535.054 220.182 537.141C272.901 539.229 326.945 526.443 376.221 494.871C380.195 496.698 384.434 497.742 389.202 497.481C404.833 496.959 417.019 484.173 416.489 468.779C415.959 453.384 402.978 441.382 387.348 441.903C371.717 442.425 359.531 455.211 360.061 470.605C360.061 473.736 360.855 476.607 361.65 479.216C316.348 507.396 268.927 518.094 220.976 516.006C164.813 513.658 119.776 489.392 91.9591 467.213C71.825 451.297 57.5192 435.38 49.8365 425.987C46.1276 421.551 40.0343 420.768 35.2657 423.639C30.4971 427.813 29.7024 434.858 33.6762 439.555ZM387.613 450.253C398.474 449.992 407.747 458.342 408.012 469.04C408.277 479.738 399.799 488.87 388.937 489.131C378.075 489.392 368.803 481.042 368.538 470.344C368.273 459.646 376.751 450.775 387.613 450.253Z" fill="#EF7C27"/>
<path d="M1.63331 214.379C0.308693 227.164 -1.01592 249.604 1.89823 276.218C7.72652 331.534 30.2449 377.718 63.6252 413.204C99.3897 451.299 146.546 480.001 204.299 492.004C205.889 495.918 208.273 499.832 211.452 502.702C222.844 513.139 240.593 512.617 251.455 501.397C262.052 490.177 261.522 472.695 250.131 461.997C238.739 451.56 220.989 452.082 210.127 463.302C208.008 465.65 206.418 467.999 205.094 470.608C152.639 458.866 111.576 433.556 78.9907 398.592C41.1068 358.671 26.536 310.139 22.8271 274.914C20.1779 249.604 21.5025 228.208 22.5622 216.466C23.092 210.987 19.3831 205.768 13.8197 204.724C7.72652 203.942 2.16315 208.377 1.63331 214.379ZM244.037 468.781C251.985 476.087 252.515 488.351 244.832 496.179C237.414 504.006 224.963 504.528 217.015 496.961C209.068 489.656 208.803 477.392 216.221 469.564C223.638 461.736 236.09 461.215 244.037 468.781Z" fill="#E54428"/>
<path d="M140.472 33.0255C130.405 41.1142 113.45 55.987 96.2296 76.8611C60.4651 119.914 43.5101 168.446 41.3907 216.717C39.2713 268.642 52.2525 321.871 84.3081 370.403C82.4537 374.317 81.394 378.491 81.6589 383.188C82.1887 398.583 95.1699 410.585 110.8 410.063C126.431 409.542 138.617 396.756 138.087 381.362C137.558 365.967 124.576 353.964 108.946 354.486C105.767 354.486 102.853 355.269 100.203 356.052C71.5918 311.433 60.73 264.728 62.8494 217.5C65.2337 162.184 89.8715 117.826 112.39 90.4292C128.55 70.5988 144.71 56.5088 154.248 48.942C158.751 45.289 159.546 39.2877 156.632 34.5911C152.658 29.8944 145.505 29.1116 140.472 33.0255ZM129.61 381.623C129.875 392.321 121.397 401.453 110.535 401.714C99.6736 401.975 90.4013 393.625 90.1364 382.927C89.8715 372.229 98.349 363.097 109.211 362.836C120.073 362.575 129.08 370.925 129.61 381.623Z" fill="#BA282B"/>
<path d="M369.08 1.45862C356.099 0.153991 333.315 -1.15064 306.293 1.71955C249.865 7.19899 203.238 29.3777 166.944 62.2544C128.265 97.4794 99.1238 144.185 86.9374 200.806C82.9636 202.372 78.9897 204.72 76.0756 207.851C65.4787 219.071 66.0086 236.553 77.4002 247.251C88.7919 257.688 106.542 257.166 117.403 245.946C127.735 234.726 127.206 217.244 115.814 206.807C113.695 204.72 111.045 202.893 108.396 201.85C120.318 150.186 146.015 109.743 181.515 77.649C222.578 40.3366 271.853 25.9857 307.618 22.3327C333.315 19.7234 354.774 21.0281 366.96 22.0718C372.524 22.5936 377.822 18.9407 378.882 13.4612C379.942 7.45992 375.438 1.98047 369.08 1.45862ZM111.045 240.206C103.628 248.034 91.1762 248.555 83.2285 240.989C75.0159 233.944 74.751 221.68 82.1688 213.591C89.5866 205.764 102.038 205.242 109.986 212.809C117.933 220.115 118.463 232.378 111.045 240.206Z" fill="#050507"/>
<path d="M553.471 138.183C544.993 128.267 529.892 111.568 508.699 94.608C464.986 59.383 415.711 42.6837 366.7 40.5963C313.981 38.5089 259.936 51.2943 210.661 82.8663C206.687 81.0398 202.448 79.9961 197.68 80.2571C182.049 80.7789 169.863 93.5643 170.393 108.959C170.922 124.354 183.904 136.356 199.534 135.834C215.165 135.312 227.351 122.527 226.821 107.132C226.821 104.001 226.026 101.131 225.232 98.5219C270.533 70.3419 317.954 59.6439 365.905 61.7313C422.069 64.0797 467.106 88.3458 494.923 110.524C515.057 126.441 529.363 142.357 537.045 151.751C540.754 156.187 546.847 156.969 551.616 154.099C556.65 150.185 557.444 143.14 553.471 138.183ZM199.269 127.485C188.407 127.746 179.135 119.396 178.87 108.698C178.605 98 187.083 88.8676 197.945 88.6067C208.806 88.3458 218.079 96.6954 218.344 107.393C218.609 118.091 210.131 126.963 199.269 127.485Z" fill="#FAB624"/>
</svg>
